HIERARCHY
ROOT Hips
{
	OFFSET 0.00000 0.00000 0.00000
	CHANNELS 6 Xposition Yposition Zposition Zrotation Yrotation Xrotation 
	JOINT LHipJoint
	{
		OFFSET 0 0 0
		CHANNELS 3 Zrotation Yrotation Xrotation
		JOINT LeftHip
		{
			OFFSET 1.62067 -1.77917 0.70989
			CHANNELS 3 Zrotation Yrotation Xrotation
			JOINT LeftKnee
			{
				OFFSET 2.34532 -6.44371 0.00000
				CHANNELS 3 Zrotation Yrotation Xrotation
				JOINT LeftAnkle
				{
					OFFSET 2.74224 -7.53425 0.00000
					CHANNELS 3 Zrotation Yrotation Xrotation
					JOINT LeftToe
					{
						OFFSET 0.17032 -0.46794 2.08086
						CHANNELS 3 Zrotation Yrotation Xrotation
						End Site
						{
							OFFSET 0.00000 -0.00000 1.07476
						}
					}
				}
			}
		}
	}
	JOINT RHipJoint
	{
		OFFSET 0 0 0
		CHANNELS 3 Zrotation Yrotation Xrotation
		JOINT RightHip
		{
			OFFSET -1.55811 -1.77917 0.70989
			CHANNELS 3 Zrotation Yrotation Xrotation
			JOINT RightKnee
			{
				OFFSET -2.33243 -6.40830 0.00000
				CHANNELS 3 Zrotation Yrotation Xrotation
				JOINT RightAnkle
				{
					OFFSET -2.78798 -7.65993 0.00000
					CHANNELS 3 Zrotation Yrotation Xrotation
					JOINT RightToe
					{
						OFFSET -0.22707 -0.62388 2.04059
						CHANNELS 3 Zrotation Yrotation Xrotation
						End Site
						{
							OFFSET -0.00000 -0.00000 1.07030
						}
					}
				}
			}
		}
	}
	JOINT lowerback
	{
		OFFSET 0 0 0
		CHANNELS 3 Zrotation Yrotation Xrotation
		JOINT Chest
		{
			OFFSET 0.02203 1.91565 0.07161
			CHANNELS 3 Zrotation Yrotation Xrotation
			JOINT Chest2
			{
				OFFSET 0.01740 1.90525 0.11636
				CHANNELS 3 Zrotation Yrotation Xrotation
				JOINT lowerneck
				{
					OFFSET 0 0 0
					CHANNELS 3 Zrotation Yrotation Xrotation
					JOINT Neck
					{
						OFFSET -0.10841 1.83566 0.05067
						CHANNELS 3 Zrotation Yrotation Xrotation
						JOINT Head
						{
							OFFSET 0.06601 1.74760 -0.50505
							CHANNELS 3 Zrotation Yrotation Xrotation
							End Site
							{
								OFFSET 0.03102 1.85215 -0.17697
							}
						}
					}
				}
				JOINT LeftCollar
				{
					OFFSET 0 0 0
					CHANNELS 3 Zrotation Yrotation Xrotation
					JOINT LeftShoulder
					{
						OFFSET 2.87059 1.35470 0.16111
CHANNELS 3 Zrotation Xrotation Yrotation
						JOINT LeftElbow
						{
OFFSET 0 -5.435920 0.000000
CHANNELS 3 Zrotation Xrotation Yrotation
							JOINT LeftWrist
							{
OFFSET 0 -3.254600 0.000000
CHANNELS 3 Zrotation Xrotation Yrotation
								JOINT lhand
								{
									OFFSET 0 0 0
CHANNELS 3 Zrotation Xrotation Yrotation
									JOINT LFingers
									{
OFFSET 0 -0.498240 0.000000
CHANNELS 3 Zrotation Xrotation Yrotation
										End Site
										{
OFFSET 0 -0.401700 0.000000
										}
									}
								}
								JOINT LThumb
								{
OFFSET 0 0.000000 0.000000
CHANNELS 3 Zrotation Xrotation Yrotation
									End Site
									{
OFFSET 0 -0.407830 0.407830
									}
								}
							}
						}
					}
				}
				JOINT RightCollar
				{
					OFFSET 0 0 0
					CHANNELS 3 Zrotation Yrotation Xrotation
					JOINT RightShoulder
					{
						OFFSET -2.86643 1.23488 0.45957
CHANNELS 3 Zrotation Xrotation Yrotation
						JOINT RightElbow
						{
OFFSET 0 -5.338300 0.000000
CHANNELS 3 Zrotation Xrotation Yrotation
							JOINT RightWrist
							{
OFFSET 0 -3.231480 0.000000
CHANNELS 3 Zrotation Xrotation Yrotation
								JOINT rhand
								{
									OFFSET 0 0 0
CHANNELS 3 Zrotation Xrotation Yrotation
									JOINT RFingers
									{
OFFSET 0 -0.463640 0.000000
CHANNELS 3 Zrotation Xrotation Yrotation
										End Site
										{
OFFSET 0 -0.373800 0.000000
										}
									}
								}
								JOINT RThumb
								{
OFFSET 0 0.000000 0.000000
CHANNELS 3 Zrotation Xrotation Yrotation
									End Site
									{
OFFSET 0 -0.379510 0.379510
									}
								}
							}
						}
					}
				}
			}
		}
	}
}
MOTION
Frames: 8
Frame Time: 0.008333333333333333
1.156500 17.693900 0.003000 -3.179600 2.006000 14.774100 0.000000 0.000000 0.000000 -7.273700 -16.810800 -11.885900 0.488800 4.482900 12.439300 -1.033900 18.969400 -14.631200 0.000200 -0.083000 -0.228200 0.000000 0.000000 0.000000 14.524000 19.727000 -1.997800 -0.069800 -1.704200 4.688800 3.632900 -31.482300 -14.699800 -0.048000 1.414200 -3.889200 5.849800 -1.029900 -11.335200 1.511300 -1.929100 -6.482400 -1.914700 -1.098700 -0.579400 -7.296800 -1.604800 -15.873500 4.558400 -1.509300 25.338200 2.678100 -0.841500 10.885900 0.000000 -0.000000 0.000000 3.694700 8.254400 -16.739400 17.584200 -27.621500 4.354800 38.110600 -33.236000 22.327500 0.000000 0.000000 0.000000 -7.125000 0.000000 0.000000 5.628500 2.532600 5.400800 0.000000 -0.000000 0.000000 -6.833800 13.634900 19.846700 -21.174500 -32.031400 -6.142200 -26.030000 23.223000 48.536600 0.000000 0.000000 0.000000 7.125000 0.000000 -0.000000 38.690100 79.422500 -31.578800
1.152786 17.695418 -0.025704 -3.553027 1.410437 15.105674 0.000000 0.000000 0.000000 -6.823675 -16.629555 -12.391533 0.508198 4.569685 12.685232 -1.077161 19.298241 -14.831522 0.003083 -0.270997 -0.744631 0.000000 0.000000 0.000000 14.555586 20.762025 -2.757193 -0.088597 -1.919254 5.282555 3.699311 -31.716604 -14.434357 -0.089241 1.923323 -5.293902 6.106743 -0.790818 -11.072019 1.629002 -1.607767 -6.722339 -1.890889 -0.957971 -0.956747 -7.392298 -1.580001 -15.630735 4.556267 -1.465288 25.317005 2.698742 -0.833048 10.828276 0.000000 0.000000 0.000000 3.584051 8.443056 -16.713252 17.729151 -27.808974 4.422145 38.027817 -32.941556 21.842165 0.000000 0.000000 0.000000 -7.125000 0.000000 0.000000 5.674629 3.125158 5.383685 0.000000 0.000000 0.000000 -6.880741 13.490169 19.716361 -20.947105 -31.766505 -6.022042 -26.142002 23.461024 48.593229 0.000000 0.000000 0.000000 7.125000 0.000000 0.000000 38.841730 79.501453 -31.772976
1.166213 17.688223 0.013714 -3.734342 0.159380 14.415237 0.000000 0.000000 0.000000 -7.186945 -16.564834 -11.045739 0.521555 4.628239 12.851198 -1.196529 20.389490 -15.912014 0.000378 -0.043568 -0.119805 0.000000 0.000000 0.000000 14.794899 21.478511 -1.103489 -0.055379 -1.517663 4.174525 3.435989 -30.998370 -17.468067 -0.002826 -0.304435 0.836439 6.350981 -0.375303 -10.792563 1.571779 -1.072483 -6.424106 -2.036998 -0.687244 -0.762238 -6.595221 -1.872286 -15.003457 2.954882 -1.711811 25.566744 1.949800 -1.072560 10.799912 0.000000 0.000000 0.000000 3.536633 8.465178 -16.646441 17.728350 -27.807779 4.421870 38.114670 -32.948952 21.823865 0.000000 0.000000 0.000000 -7.125000 0.000000 0.000000 5.730546 3.121229 5.437837 0.000000 0.000000 0.000000 -6.963989 13.816694 20.006294 -20.926889 -31.742860 -6.011413 -27.534282 22.419120 46.009975 0.000000 0.000000 0.000000 7.125000 0.000000 0.000000 27.291290 78.253316 -21.435326
1.173554 17.685658 0.030020 -3.515598 0.911269 13.988857 0.000000 0.000000 0.000000 -7.454657 -16.678621 -10.555880 0.503623 4.549295 12.627442 -1.121295 19.835089 -15.616074 0.002783 -0.338989 -0.931326 0.000000 0.000000 0.000000 14.966928 20.381149 -0.419531 -0.045470 -1.376121 3.784389 3.360892 -30.772546 -17.832435 -0.005774 -0.485961 1.335281 6.363285 -0.659473 -10.641414 1.524612 -1.445408 -6.226812 -2.128171 -0.867884 -0.669128 -6.687140 -1.871490 -15.288740 3.055667 -1.693792 25.703355 2.005581 -1.060961 10.907672 0.000000 0.000000 0.000000 3.480731 8.434643 -16.610954 17.877662 -28.000240 4.491683 37.930473 -32.934962 21.858792 0.000000 0.000000 0.000000 -7.125000 0.000000 0.000000 5.612447 3.133853 5.323257 0.000000 0.000000 0.000000 -6.954369 13.676498 19.896159 -20.892410 -31.702510 -5.993299 -27.223827 22.642214 47.112478 0.000000 0.000000 0.000000 7.125000 0.000000 0.000000 31.522608 78.960535 -25.276023
1.175121 17.685921 0.036095 -3.553039 0.970478 14.033124 0.000000 0.000000 0.000000 -7.406413 -16.644265 -10.633829 0.503164 4.547498 12.622312 -1.150659 19.954295 -15.407302 0.002564 -0.325018 -0.892949 0.000000 0.000000 0.000000 15.001889 20.293447 -0.381707 -0.041956 -1.321885 3.634889 3.336941 -30.701114 -17.947549 -0.010066 -0.645941 1.775237 6.425839 -0.657378 -10.816382 1.534188 -1.464688 -6.177363 -2.159621 -0.873782 -0.525604 -6.670895 -1.830621 -15.186842 3.108456 -1.660272 25.568642 2.025278 -1.036293 10.835245 0.000000 0.000000 0.000000 3.426985 8.424873 -16.523691 18.004906 -28.163394 4.551526 37.786757 -32.766882 21.978918 0.000000 0.000000 0.000000 -7.125000 0.000000 0.000000 5.502028 3.034781 5.227480 0.000000 0.000000 0.000000 -6.973595 13.596805 20.017072 -20.868810 -31.674858 -5.980904 -28.287548 22.577673 45.096246 0.000000 0.000000 0.000000 7.125000 0.000000 0.000000 23.332259 77.832566 -18.057159
1.176686 17.686098 0.035583 -3.544903 0.923804 14.057207 0.000000 0.000000 0.000000 -7.415424 -16.731180 -10.578675 0.500907 4.537431 12.593885 -1.149397 19.998705 -15.578789 0.000601 -0.156214 -0.429187 0.000000 0.000000 0.000000 14.971295 20.338111 -0.389942 -0.041697 -1.317958 3.624183 3.353449 -30.749014 -17.857463 -0.012701 -0.729017 2.003548 6.465279 -0.631625 -10.748943 1.525180 -1.430462 -6.141099 -2.186827 -0.857085 -0.522939 -6.745485 -1.915329 -15.511722 3.149782 -1.749041 25.678556 2.041338 -1.078265 10.946719 0.000000 0.000000 0.000000 3.378942 8.229151 -16.521965 17.981230 -28.133039 4.540414 38.061801 -32.555849 21.422971 0.000000 0.000000 0.000000 -7.125000 0.000000 0.000000 5.777120 3.607312 5.430311 0.000000 0.000000 0.000000 -7.014932 13.446955 20.049847 -20.818586 -31.615884 -5.954493 -28.431256 22.505627 44.891276 0.000000 0.000000 0.000000 7.125000 0.000000 0.000000 22.529533 77.720564 -17.374175
1.175096 17.685096 0.035184 -3.582719 0.993863 14.055655 0.000000 0.000000 0.000000 -7.358210 -16.593397 -10.697961 0.506766 4.563224 12.666930 -1.130769 19.823658 -15.386449 0.001177 -0.218795 -0.601224 0.000000 0.000000 0.000000 15.059267 20.197371 -0.241993 -0.034919 -1.206415 3.316926 3.401678 -30.862957 -17.378383 -0.007231 -0.548010 1.505938 6.481285 -0.701461 -10.750911 1.599031 -1.524327 -6.157987 -2.127744 -0.904154 -0.546023 -6.722893 -1.837413 -15.380732 3.062434 -1.627680 25.512829 2.020734 -1.029988 10.851350 0.000000 0.000000 0.000000 3.247951 8.348320 -16.400387 18.096269 -28.280246 4.594734 37.882954 -32.245377 21.074437 0.000000 0.000000 0.000000 -7.125000 0.000000 0.000000 5.735471 4.067994 5.341562 0.000000 0.000000 0.000000 -7.126971 13.371784 20.092293 -20.708073 -31.486028 -5.896781 -28.342644 22.690414 44.826622 0.000000 0.000000 0.000000 7.125000 0.000000 0.000000 22.482212 77.631012 -17.296300
1.177669 17.686713 0.042642 -3.523625 1.021523 14.086091 0.000000 0.000000 0.000000 -7.420867 -16.824877 -10.612180 0.506500 4.562056 12.663552 -1.128691 19.912816 -15.717929 0.000361 -0.120790 -0.331892 0.000000 0.000000 0.000000 14.989920 20.089198 -0.145587 -0.030902 -1.135241 3.120925 3.375683 -30.803189 -17.655094 -0.008022 -0.577573 1.587167 6.476264 -0.716853 -10.806367 1.572814 -1.546899 -6.190931 -2.154911 -0.916699 -0.553122 -6.687820 -1.830722 -15.254806 3.015847 -1.623901 25.451917 1.997881 -1.030581 10.803116 0.000000 0.000000 0.000000 3.273945 8.325451 -16.430367 17.882229 -28.006008 4.493786 38.016739 -33.061174 21.935775 0.000000 0.000000 0.000000 -7.125000 0.000000 0.000000 5.649481 3.018611 5.370733 0.000000 0.000000 0.000000 -7.168968 13.482289 20.233570 -20.780268 -31.570989 -5.934482 -28.514489 22.513543 44.256638 0.000000 0.000000 0.000000 7.125000 0.000000 0.000000 20.690694 77.216965 -15.723239
